<?xml version="1.0" encoding="UTF-8" standalone="no"?><!DOCTYPE svg PUBLIC "-//W3C//DTD SVG 1.1//EN" "http://www.w3.org/Graphics/SVG/1.1/DTD/svg11.dtd"><!-- Generated by graphviz version 2.40.1 (20161225.0304)
 --><!-- Title: SMT Pages: 1 --><svg xmlns="http://www.w3.org/2000/svg" xmlns:xlink="http://www.w3.org/1999/xlink" width="1674pt" height="516pt" viewBox="0.00 0.00 1673.63 515.60">
<g id="graph0" class="graph" transform="scale(1 1) rotate(0) translate(4 511.6)">
<title>SMT</title>
<polygon fill="#ffffff" stroke="transparent" points="-4,4 -4,-511.6 1669.634,-511.6 1669.634,4 -4,4"/>
<!-- shortcut key -->
<g id="node1" class="node">
<title>shortcut key</title>
<ellipse fill="#43a2ca" stroke="#000000" cx="373.7048" cy="-489.6" rx="63.1789" ry="18"/>
<text text-anchor="middle" x="373.7048" y="-485.4" font-family="Arial" font-size="14.00" fill="#000000">shortcut key</text>
</g>
<!-- shortcut val -->
<g id="node2" class="node">
<title>shortcut val</title>
<ellipse fill="#a8ddb5" stroke="#000000" cx="514.7048" cy="-489.6" rx="60.3077" ry="18"/>
<text text-anchor="middle" x="514.7048" y="-485.4" font-family="Arial" font-size="14.00" fill="#000000">shortcut val</text>
</g>
<!-- page border -->
<g id="node3" class="node">
<title>page border</title>
<polygon fill="#d3d3d3" stroke="#000000" points="684.6786,-507.6 592.731,-507.6 592.731,-471.6 684.6786,-471.6 684.6786,-507.6"/>
<text text-anchor="middle" x="638.7048" y="-485.4" font-family="Arial" font-size="14.00" fill="#000000">page border</text>
</g>
<!-- 19c875dc472a886800 -->
<g id="node4" class="node">
<title>19c875dc472a886800</title>
<polygon fill="#d3d3d3" stroke="#000000" points="856.7271,-507.6 702.6824,-507.6 702.6824,-471.6 856.7271,-471.6 856.7271,-507.6"/>
<text text-anchor="middle" x="779.7048" y="-485.4" font-family="Arial" font-size="14.00" fill="#000000">19c875dc472a886800</text>
</g>
<!-- da5df9772a7ed1e300 -->
<g id="node5" class="node">
<title>da5df9772a7ed1e300</title>
<ellipse fill="#d3d3d3" stroke="#000000" cx="619.7048" cy="-417.6" rx="104.9624" ry="18"/>
<text text-anchor="middle" x="619.7048" y="-413.4" font-family="Arial" font-size="14.00" fill="#000000">da5df9772a7ed1e300</text>
</g>
<!-- 19c875dc472a886800&#45;&gt;da5df9772a7ed1e300 -->
<g id="edge1" class="edge">
<title>19c875dc472a886800-&gt;da5df9772a7ed1e300</title>
<path fill="none" stroke="#000000" d="M739.33,-471.4314C717.1987,-461.4723 689.6545,-449.0774 666.5772,-438.6926"/>
<polygon fill="#000000" stroke="#000000" points="667.8743,-435.4383 657.3188,-434.5263 665.0017,-441.8217 667.8743,-435.4383"/>
</g>
<!-- b8cbfacb1ea8040800 -->
<g id="node20" class="node">
<title>b8cbfacb1ea8040800</title>
<ellipse fill="#d3d3d3" stroke="#000000" cx="940.7048" cy="-417.6" rx="103.8032" ry="18"/>
<text text-anchor="middle" x="940.7048" y="-413.4" font-family="Arial" font-size="14.00" fill="#000000">b8cbfacb1ea8040800</text>
</g>
<!-- 19c875dc472a886800&#45;&gt;b8cbfacb1ea8040800 -->
<g id="edge16" class="edge">
<title>19c875dc472a886800-&gt;b8cbfacb1ea8040800</title>
<path fill="none" stroke="#000000" d="M820.3319,-471.4314C842.6834,-461.4356 870.5217,-448.9862 893.7954,-438.5781"/>
<polygon fill="#000000" stroke="#000000" points="895.429,-441.6817 903.1289,-434.4041 892.5713,-435.2915 895.429,-441.6817"/>
</g>
<!-- ef1904ad4c72a43e01 -->
<g id="node6" class="node">
<title>ef1904ad4c72a43e01</title>
<ellipse fill="#d3d3d3" stroke="#000000" cx="302.7048" cy="-345.6" rx="104.3828" ry="18"/>
<text text-anchor="middle" x="302.7048" y="-341.4" font-family="Arial" font-size="14.00" fill="#000000">ef1904ad4c72a43e01</text>
</g>
<!-- da5df9772a7ed1e300&#45;&gt;ef1904ad4c72a43e01 -->
<g id="edge2" class="edge">
<title>da5df9772a7ed1e300-&gt;ef1904ad4c72a43e01</title>
<path fill="none" stroke="#000000" d="M556.317,-403.2028C504.2682,-391.381 430.5049,-374.6272 375.9385,-362.2335"/>
<polygon fill="#000000" stroke="#000000" points="376.5096,-358.7742 365.9827,-359.9723 374.9591,-365.6003 376.5096,-358.7742"/>
</g>
<!-- 12bffa5624ca4c1c01 -->
<g id="node13" class="node">
<title>12bffa5624ca4c1c01</title>
<ellipse fill="#d3d3d3" stroke="#000000" cx="619.7048" cy="-345.6" rx="100.8545" ry="18"/>
<text text-anchor="middle" x="619.7048" y="-341.4" font-family="Arial" font-size="14.00" fill="#000000">12bffa5624ca4c1c01</text>
</g>
<!-- da5df9772a7ed1e300&#45;&gt;12bffa5624ca4c1c01 -->
<g id="edge9" class="edge">
<title>da5df9772a7ed1e300-&gt;12bffa5624ca4c1c01</title>
<path fill="none" stroke="#000000" d="M619.7048,-399.4314C619.7048,-391.731 619.7048,-382.5743 619.7048,-374.0166"/>
<polygon fill="#000000" stroke="#000000" points="623.2049,-374.0132 619.7048,-364.0133 616.2049,-374.0133 623.2049,-374.0132"/>
</g>
<!-- 3ca629fb4663b6a9 -->
<g id="node7" class="node">
<title>3ca629fb4663b6a9</title>
<ellipse fill="#43a2ca" stroke="#000000" cx="93.7048" cy="-273.6" rx="93.91" ry="18"/>
<text text-anchor="middle" x="93.7048" y="-269.4" font-family="Arial" font-size="14.00" fill="#000000">3ca629fb4663b6a9</text>
</g>
<!-- ef1904ad4c72a43e01&#45;&gt;3ca629fb4663b6a9 -->
<g id="edge3" class="edge">
<title>ef1904ad4c72a43e01-&gt;3ca629fb4663b6a9</title>
<path fill="none" stroke="#000000" d="M255.8011,-329.4418C224.1443,-318.5361 182.2323,-304.0975 148.9573,-292.6344"/>
<polygon fill="#000000" stroke="#000000" points="149.9687,-289.281 139.374,-289.3329 147.6886,-295.8992 149.9687,-289.281"/>
</g>
<!-- 0000000000000034 -->
<g id="node10" class="node">
<title>0000000000000034</title>
<ellipse fill="#a8ddb5" stroke="#000000" cx="302.7048" cy="-273.6" rx="96.8585" ry="18"/>
<text text-anchor="middle" x="302.7048" y="-269.4" font-family="Arial" font-size="14.00" fill="#000000">0000000000000034</text>
</g>
<!-- ef1904ad4c72a43e01&#45;&gt;0000000000000034 -->
<g id="edge6" class="edge">
<title>ef1904ad4c72a43e01-&gt;0000000000000034</title>
<path fill="none" stroke="#000000" d="M302.7048,-327.4314C302.7048,-319.731 302.7048,-310.5743 302.7048,-302.0166"/>
<polygon fill="#000000" stroke="#000000" points="306.2049,-302.0132 302.7048,-292.0133 299.2049,-302.0133 306.2049,-302.0132"/>
</g>
<!-- null0 -->
<g id="node8" class="node">
<title>null0</title>
<ellipse fill="#000000" stroke="#000000" cx="82.7048" cy="-201.6" rx="1.8" ry="1.8"/>
</g>
<!-- 3ca629fb4663b6a9&#45;&gt;null0 -->
<g id="edge4" class="edge">
<title>3ca629fb4663b6a9-&gt;null0</title>
<path fill="none" stroke="#000000" d="M90.929,-255.4314C88.9162,-242.2567 86.2522,-224.8195 84.5094,-213.4119"/>
<polygon fill="#000000" stroke="#000000" points="87.951,-212.7634 82.9808,-203.4068 81.0313,-213.8207 87.951,-212.7634"/>
</g>
<!-- null1 -->
<g id="node9" class="node">
<title>null1</title>
<ellipse fill="#000000" stroke="#000000" cx="104.7048" cy="-201.6" rx="1.8" ry="1.8"/>
</g>
<!-- 3ca629fb4663b6a9&#45;&gt;null1 -->
<g id="edge5" class="edge">
<title>3ca629fb4663b6a9-&gt;null1</title>
<path fill="none" stroke="#000000" d="M96.4805,-255.4314C98.4933,-242.2567 101.1574,-224.8195 102.9002,-213.4119"/>
<polygon fill="#000000" stroke="#000000" points="106.3783,-213.8207 104.4287,-203.4068 99.4586,-212.7634 106.3783,-213.8207"/>
</g>
<!-- null2 -->
<g id="node11" class="node">
<title>null2</title>
<ellipse fill="#000000" stroke="#000000" cx="291.7048" cy="-201.6" rx="1.8" ry="1.8"/>
</g>
<!-- 0000000000000034&#45;&gt;null2 -->
<g id="edge7" class="edge">
<title>0000000000000034-&gt;null2</title>
<path fill="none" stroke="#000000" d="M299.929,-255.4314C297.9162,-242.2567 295.2522,-224.8195 293.5094,-213.4119"/>
<polygon fill="#000000" stroke="#000000" points="296.951,-212.7634 291.9808,-203.4068 290.0313,-213.8207 296.951,-212.7634"/>
</g>
<!-- null3 -->
<g id="node12" class="node">
<title>null3</title>
<ellipse fill="#000000" stroke="#000000" cx="313.7048" cy="-201.6" rx="1.8" ry="1.8"/>
</g>
<!-- 0000000000000034&#45;&gt;null3 -->
<g id="edge8" class="edge">
<title>0000000000000034-&gt;null3</title>
<path fill="none" stroke="#000000" d="M305.4805,-255.4314C307.4933,-242.2567 310.1574,-224.8195 311.9002,-213.4119"/>
<polygon fill="#000000" stroke="#000000" points="315.3783,-213.8207 313.4287,-203.4068 308.4586,-212.7634 315.3783,-213.8207"/>
</g>
<!-- 53534c064229a9df -->
<g id="node14" class="node">
<title>53534c064229a9df</title>
<ellipse fill="#43a2ca" stroke="#000000" cx="511.7048" cy="-273.6" rx="93.91" ry="18"/>
<text text-anchor="middle" x="511.7048" y="-269.4" font-family="Arial" font-size="14.00" fill="#000000">53534c064229a9df</text>
</g>
<!-- 12bffa5624ca4c1c01&#45;&gt;53534c064229a9df -->
<g id="edge10" class="edge">
<title>12bffa5624ca4c1c01-&gt;53534c064229a9df</title>
<path fill="none" stroke="#000000" d="M593.561,-328.1708C579.4709,-318.7774 561.8964,-307.0611 546.6477,-296.8953"/>
<polygon fill="#000000" stroke="#000000" points="548.2441,-293.7531 537.9821,-291.1182 544.3612,-299.5775 548.2441,-293.7531"/>
</g>
<!-- 0000000000000033 -->
<g id="node17" class="node">
<title>0000000000000033</title>
<ellipse fill="#a8ddb5" stroke="#000000" cx="720.7048" cy="-273.6" rx="96.8585" ry="18"/>
<text text-anchor="middle" x="720.7048" y="-269.4" font-family="Arial" font-size="14.00" fill="#000000">0000000000000033</text>
</g>
<!-- 12bffa5624ca4c1c01&#45;&gt;0000000000000033 -->
<g id="edge13" class="edge">
<title>12bffa5624ca4c1c01-&gt;0000000000000033</title>
<path fill="none" stroke="#000000" d="M644.4122,-327.9868C657.4701,-318.6782 673.673,-307.1276 687.7837,-297.0685"/>
<polygon fill="#000000" stroke="#000000" points="690.1414,-299.6861 696.2525,-291.0313 686.078,-293.9862 690.1414,-299.6861"/>
</g>
<!-- null4 -->
<g id="node15" class="node">
<title>null4</title>
<ellipse fill="#000000" stroke="#000000" cx="500.7048" cy="-201.6" rx="1.8" ry="1.8"/>
</g>
<!-- 53534c064229a9df&#45;&gt;null4 -->
<g id="edge11" class="edge">
<title>53534c064229a9df-&gt;null4</title>
<path fill="none" stroke="#000000" d="M508.929,-255.4314C506.9162,-242.2567 504.2522,-224.8195 502.5094,-213.4119"/>
<polygon fill="#000000" stroke="#000000" points="505.951,-212.7634 500.9808,-203.4068 499.0313,-213.8207 505.951,-212.7634"/>
</g>
<!-- null5 -->
<g id="node16" class="node">
<title>null5</title>
<ellipse fill="#000000" stroke="#000000" cx="522.7048" cy="-201.6" rx="1.8" ry="1.8"/>
</g>
<!-- 53534c064229a9df&#45;&gt;null5 -->
<g id="edge12" class="edge">
<title>53534c064229a9df-&gt;null5</title>
<path fill="none" stroke="#000000" d="M514.4805,-255.4314C516.4933,-242.2567 519.1574,-224.8195 520.9002,-213.4119"/>
<polygon fill="#000000" stroke="#000000" points="524.3783,-213.8207 522.4287,-203.4068 517.4586,-212.7634 524.3783,-213.8207"/>
</g>
<!-- null6 -->
<g id="node18" class="node">
<title>null6</title>
<ellipse fill="#000000" stroke="#000000" cx="703.7048" cy="-201.6" rx="1.8" ry="1.8"/>
</g>
<!-- 0000000000000033&#45;&gt;null6 -->
<g id="edge14" class="edge">
<title>0000000000000033-&gt;null6</title>
<path fill="none" stroke="#000000" d="M716.415,-255.4314C713.3043,-242.2567 709.1872,-224.8195 706.4937,-213.4119"/>
<polygon fill="#000000" stroke="#000000" points="709.8357,-212.3349 704.1314,-203.4068 703.023,-213.9435 709.8357,-212.3349"/>
</g>
<!-- null7 -->
<g id="node19" class="node">
<title>null7</title>
<ellipse fill="#000000" stroke="#000000" cx="725.7048" cy="-201.6" rx="1.8" ry="1.8"/>
</g>
<!-- 0000000000000033&#45;&gt;null7 -->
<g id="edge15" class="edge">
<title>0000000000000033-&gt;null7</title>
<path fill="none" stroke="#000000" d="M721.9665,-255.4314C722.8814,-242.2567 724.0923,-224.8195 724.8845,-213.4119"/>
<polygon fill="#000000" stroke="#000000" points="728.378,-213.6252 725.5793,-203.4068 721.3949,-213.1402 728.378,-213.6252"/>
</g>
<!-- 326815a3b77a72b300 -->
<g id="node21" class="node">
<title>326815a3b77a72b300</title>
<ellipse fill="#d3d3d3" stroke="#000000" cx="940.7048" cy="-345.6" rx="107.8319" ry="18"/>
<text text-anchor="middle" x="940.7048" y="-341.4" font-family="Arial" font-size="14.00" fill="#000000">326815a3b77a72b300</text>
</g>
<!-- b8cbfacb1ea8040800&#45;&gt;326815a3b77a72b300 -->
<g id="edge17" class="edge">
<title>b8cbfacb1ea8040800-&gt;326815a3b77a72b300</title>
<path fill="none" stroke="#000000" d="M940.7048,-399.4314C940.7048,-391.731 940.7048,-382.5743 940.7048,-374.0166"/>
<polygon fill="#000000" stroke="#000000" points="944.2049,-374.0132 940.7048,-364.0133 937.2049,-374.0133 944.2049,-374.0132"/>
</g>
<!-- e809d9c2752a8b3e01 -->
<g id="node46" class="node">
<title>e809d9c2752a8b3e01</title>
<ellipse fill="#d3d3d3" stroke="#000000" cx="1173.7048" cy="-345.6" rx="107.2522" ry="18"/>
<text text-anchor="middle" x="1173.7048" y="-341.4" font-family="Arial" font-size="14.00" fill="#000000">e809d9c2752a8b3e01</text>
</g>
<!-- b8cbfacb1ea8040800&#45;&gt;e809d9c2752a8b3e01 -->
<g id="edge42" class="edge">
<title>b8cbfacb1ea8040800-&gt;e809d9c2752a8b3e01</title>
<path fill="none" stroke="#000000" d="M991.5497,-401.8883C1027.0729,-390.9111 1074.6884,-376.1973 1112.3276,-364.5663"/>
<polygon fill="#000000" stroke="#000000" points="1113.6425,-367.8234 1122.1633,-361.527 1111.5757,-361.1354 1113.6425,-367.8234"/>
</g>
<!-- 66f31102ee16b0a700 -->
<g id="node22" class="node">
<title>66f31102ee16b0a700</title>
<ellipse fill="#d3d3d3" stroke="#000000" cx="940.7048" cy="-273.6" rx="104.9624" ry="18"/>
<text text-anchor="middle" x="940.7048" y="-269.4" font-family="Arial" font-size="14.00" fill="#000000">66f31102ee16b0a700</text>
</g>
<!-- 326815a3b77a72b300&#45;&gt;66f31102ee16b0a700 -->
<g id="edge18" class="edge">
<title>326815a3b77a72b300-&gt;66f31102ee16b0a700</title>
<path fill="none" stroke="#000000" d="M940.7048,-327.4314C940.7048,-319.731 940.7048,-310.5743 940.7048,-302.0166"/>
<polygon fill="#000000" stroke="#000000" points="944.2049,-302.0132 940.7048,-292.0133 937.2049,-302.0133 944.2049,-302.0132"/>
</g>
<!-- null20 -->
<g id="node45" class="node">
<title>null20</title>
<ellipse fill="#000000" stroke="#000000" cx="1065.7048" cy="-273.6" rx="1.8" ry="1.8"/>
</g>
<!-- 326815a3b77a72b300&#45;&gt;null20 -->
<g id="edge41" class="edge">
<title>326815a3b77a72b300-&gt;null20</title>
<path fill="none" stroke="#000000" d="M990.1673,-329.4795C1011.7183,-320.7159 1036.2209,-308.2186 1054.7048,-291.6 1056.9108,-289.6166 1058.822,-287.0863 1060.4042,-284.5538"/>
<polygon fill="#000000" stroke="#000000" points="1063.5775,-286.0344 1064.9665,-275.531 1057.3306,-282.8757 1063.5775,-286.0344"/>
</g>
<!-- 1662dc9c8ceb7d1301 -->
<g id="node23" class="node">
<title>1662dc9c8ceb7d1301</title>
<polygon fill="#d3d3d3" stroke="#000000" points="920.444,-219.6 766.9656,-219.6 766.9656,-183.6 920.444,-183.6 920.444,-219.6"/>
<text text-anchor="middle" x="843.7048" y="-197.4" font-family="Arial" font-size="14.00" fill="#000000">1662dc9c8ceb7d1301</text>
</g>
<!-- 66f31102ee16b0a700&#45;&gt;1662dc9c8ceb7d1301 -->
<g id="edge19" class="edge">
<title>66f31102ee16b0a700-&gt;1662dc9c8ceb7d1301</title>
<path fill="none" stroke="#000000" d="M916.7272,-255.8022C904.5776,-246.7839 889.6416,-235.6975 876.4502,-225.9059"/>
<polygon fill="#000000" stroke="#000000" points="878.196,-222.8429 868.0802,-219.6931 874.0239,-228.4638 878.196,-222.8429"/>
</g>
<!-- d54f239f968e5c7100 -->
<g id="node30" class="node">
<title>d54f239f968e5c7100</title>
<polygon fill="#d3d3d3" stroke="#000000" points="1139.2258,-219.6 992.1838,-219.6 992.1838,-183.6 1139.2258,-183.6 1139.2258,-219.6"/>
<text text-anchor="middle" x="1065.7048" y="-197.4" font-family="Arial" font-size="14.00" fill="#000000">d54f239f968e5c7100</text>
</g>
<!-- 66f31102ee16b0a700&#45;&gt;d54f239f968e5c7100 -->
<g id="edge26" class="edge">
<title>66f31102ee16b0a700-&gt;d54f239f968e5c7100</title>
<path fill="none" stroke="#000000" d="M970.9638,-256.1708C987.3305,-246.7436 1007.7591,-234.9767 1025.4521,-224.7855"/>
<polygon fill="#000000" stroke="#000000" points="1027.5006,-227.6447 1034.419,-219.6206 1024.0068,-221.579 1027.5006,-227.6447"/>
</g>
<!-- 88e0309637733a86 -->
<g id="node24" class="node">
<title>88e0309637733a86</title>
<ellipse fill="#43a2ca" stroke="#000000" cx="631.7048" cy="-129.6" rx="96.8585" ry="18"/>
<text text-anchor="middle" x="631.7048" y="-125.4" font-family="Arial" font-size="14.00" fill="#000000">88e0309637733a86</text>
</g>
<!-- 1662dc9c8ceb7d1301&#45;&gt;88e0309637733a86 -->
<g id="edge20" class="edge">
<title>1662dc9c8ceb7d1301-&gt;88e0309637733a86</title>
<path fill="none" stroke="#000000" d="M790.4819,-183.5243C759.2474,-172.9164 719.8048,-159.5208 688.046,-148.7348"/>
<polygon fill="#000000" stroke="#000000" points="689.0485,-145.3789 678.4541,-145.4771 686.7973,-152.0071 689.0485,-145.3789"/>
</g>
<!-- 0000000000000035 -->
<g id="node27" class="node">
<title>0000000000000035</title>
<ellipse fill="#a8ddb5" stroke="#000000" cx="843.7048" cy="-129.6" rx="96.8585" ry="18"/>
<text text-anchor="middle" x="843.7048" y="-125.4" font-family="Arial" font-size="14.00" fill="#000000">0000000000000035</text>
</g>
<!-- 1662dc9c8ceb7d1301&#45;&gt;0000000000000035 -->
<g id="edge23" class="edge">
<title>1662dc9c8ceb7d1301-&gt;0000000000000035</title>
<path fill="none" stroke="#000000" d="M843.7048,-183.4314C843.7048,-175.731 843.7048,-166.5743 843.7048,-158.0166"/>
<polygon fill="#000000" stroke="#000000" points="847.2049,-158.0132 843.7048,-148.0133 840.2049,-158.0133 847.2049,-158.0132"/>
</g>
<!-- null8 -->
<g id="node25" class="node">
<title>null8</title>
<ellipse fill="#000000" stroke="#000000" cx="620.7048" cy="-57.6" rx="1.8" ry="1.8"/>
</g>
<!-- 88e0309637733a86&#45;&gt;null8 -->
<g id="edge21" class="edge">
<title>88e0309637733a86-&gt;null8</title>
<path fill="none" stroke="#000000" d="M628.929,-111.4314C626.9162,-98.2567 624.2522,-80.8195 622.5094,-69.4119"/>
<polygon fill="#000000" stroke="#000000" points="625.951,-68.7634 620.9808,-59.4068 619.0313,-69.8207 625.951,-68.7634"/>
</g>
<!-- null9 -->
<g id="node26" class="node">
<title>null9</title>
<ellipse fill="#000000" stroke="#000000" cx="642.7048" cy="-57.6" rx="1.8" ry="1.8"/>
</g>
<!-- 88e0309637733a86&#45;&gt;null9 -->
<g id="edge22" class="edge">
<title>88e0309637733a86-&gt;null9</title>
<path fill="none" stroke="#000000" d="M634.4805,-111.4314C636.4933,-98.2567 639.1574,-80.8195 640.9002,-69.4119"/>
<polygon fill="#000000" stroke="#000000" points="644.3783,-69.8207 642.4287,-59.4068 637.4586,-68.7634 644.3783,-69.8207"/>
</g>
<!-- null10 -->
<g id="node28" class="node">
<title>null10</title>
<ellipse fill="#000000" stroke="#000000" cx="821.7048" cy="-57.6" rx="1.8" ry="1.8"/>
</g>
<!-- 0000000000000035&#45;&gt;null10 -->
<g id="edge24" class="edge">
<title>0000000000000035-&gt;null10</title>
<path fill="none" stroke="#000000" d="M838.1533,-111.4314C834.0839,-98.1135 828.6836,-80.4399 825.201,-69.042"/>
<polygon fill="#000000" stroke="#000000" points="828.5263,-67.9475 822.2568,-59.4068 821.8319,-69.9931 828.5263,-67.9475"/>
</g>
<!-- null11 -->
<g id="node29" class="node">
<title>null11</title>
<ellipse fill="#000000" stroke="#000000" cx="843.7048" cy="-57.6" rx="1.8" ry="1.8"/>
</g>
<!-- 0000000000000035&#45;&gt;null11 -->
<g id="edge25" class="edge">
<title>0000000000000035-&gt;null11</title>
<path fill="none" stroke="#000000" d="M843.7048,-111.4314C843.7048,-98.2567 843.7048,-80.8195 843.7048,-69.4119"/>
<polygon fill="#000000" stroke="#000000" points="847.2049,-69.4067 843.7048,-59.4068 840.2049,-69.4068 847.2049,-69.4067"/>
</g>
<!-- 37340800ce21570f01 -->
<g id="node31" class="node">
<title>37340800ce21570f01</title>
<ellipse fill="#d3d3d3" stroke="#000000" cx="1065.7048" cy="-129.6" rx="104.3828" ry="18"/>
<text text-anchor="middle" x="1065.7048" y="-125.4" font-family="Arial" font-size="14.00" fill="#000000">37340800ce21570f01</text>
</g>
<!-- d54f239f968e5c7100&#45;&gt;37340800ce21570f01 -->
<g id="edge27" class="edge">
<title>d54f239f968e5c7100-&gt;37340800ce21570f01</title>
<path fill="none" stroke="#000000" d="M1065.7048,-183.4314C1065.7048,-175.731 1065.7048,-166.5743 1065.7048,-158.0166"/>
<polygon fill="#000000" stroke="#000000" points="1069.2049,-158.0132 1065.7048,-148.0133 1062.2049,-158.0133 1069.2049,-158.0132"/>
</g>
<!-- 2cc85e501e67dae401 -->
<g id="node38" class="node">
<title>2cc85e501e67dae401</title>
<ellipse fill="#d3d3d3" stroke="#000000" cx="1367.7048" cy="-129.6" rx="106.6724" ry="18"/>
<text text-anchor="middle" x="1367.7048" y="-125.4" font-family="Arial" font-size="14.00" fill="#000000">2cc85e501e67dae401</text>
</g>
<!-- d54f239f968e5c7100&#45;&gt;2cc85e501e67dae401 -->
<g id="edge34" class="edge">
<title>d54f239f968e5c7100-&gt;2cc85e501e67dae401</title>
<path fill="none" stroke="#000000" d="M1139.5823,-183.9868C1187.186,-172.6376 1248.7685,-157.9557 1295.9487,-146.7074"/>
<polygon fill="#000000" stroke="#000000" points="1296.872,-150.0855 1305.7877,-144.3617 1295.2486,-143.2763 1296.872,-150.0855"/>
</g>
<!-- 94c5a2f500795de4 -->
<g id="node32" class="node">
<title>94c5a2f500795de4</title>
<ellipse fill="#43a2ca" stroke="#000000" cx="957.7048" cy="-57.6" rx="93.91" ry="18"/>
<text text-anchor="middle" x="957.7048" y="-53.4" font-family="Arial" font-size="14.00" fill="#000000">94c5a2f500795de4</text>
</g>
<!-- 37340800ce21570f01&#45;&gt;94c5a2f500795de4 -->
<g id="edge28" class="edge">
<title>37340800ce21570f01-&gt;94c5a2f500795de4</title>
<path fill="none" stroke="#000000" d="M1039.561,-112.1708C1025.4709,-102.7774 1007.8964,-91.0611 992.6477,-80.8953"/>
<polygon fill="#000000" stroke="#000000" points="994.2441,-77.7531 983.9821,-75.1182 990.3612,-83.5775 994.2441,-77.7531"/>
</g>
<!-- 0000000000000031 -->
<g id="node35" class="node">
<title>0000000000000031</title>
<ellipse fill="#a8ddb5" stroke="#000000" cx="1166.7048" cy="-57.6" rx="96.8585" ry="18"/>
<text text-anchor="middle" x="1166.7048" y="-53.4" font-family="Arial" font-size="14.00" fill="#000000">0000000000000031</text>
</g>
<!-- 37340800ce21570f01&#45;&gt;0000000000000031 -->
<g id="edge31" class="edge">
<title>37340800ce21570f01-&gt;0000000000000031</title>
<path fill="none" stroke="#000000" d="M1090.4122,-111.9868C1103.4701,-102.6782 1119.673,-91.1276 1133.7837,-81.0685"/>
<polygon fill="#000000" stroke="#000000" points="1136.1414,-83.6861 1142.2525,-75.0313 1132.078,-77.9862 1136.1414,-83.6861"/>
</g>
<!-- null12 -->
<g id="node33" class="node">
<title>null12</title>
<ellipse fill="#000000" stroke="#000000" cx="946.7048" cy="-1.8" rx="1.8" ry="1.8"/>
</g>
<!-- 94c5a2f500795de4&#45;&gt;null12 -->
<g id="edge29" class="edge">
<title>94c5a2f500795de4-&gt;null12</title>
<path fill="none" stroke="#000000" d="M954.103,-39.329C952.4535,-30.9617 950.5444,-21.2775 949.0788,-13.8426"/>
<polygon fill="#000000" stroke="#000000" points="952.4807,-13.003 947.1126,-3.8688 945.6129,-14.357 952.4807,-13.003"/>
</g>
<!-- null13 -->
<g id="node34" class="node">
<title>null13</title>
<ellipse fill="#000000" stroke="#000000" cx="968.7048" cy="-1.8" rx="1.8" ry="1.8"/>
</g>
<!-- 94c5a2f500795de4&#45;&gt;null13 -->
<g id="edge30" class="edge">
<title>94c5a2f500795de4-&gt;null13</title>
<path fill="none" stroke="#000000" d="M961.3066,-39.329C962.9561,-30.9617 964.8651,-21.2775 966.3308,-13.8426"/>
<polygon fill="#000000" stroke="#000000" points="969.7967,-14.357 968.2969,-3.8688 962.9289,-13.003 969.7967,-14.357"/>
</g>
<!-- null14 -->
<g id="node36" class="node">
<title>null14</title>
<ellipse fill="#000000" stroke="#000000" cx="1155.7048" cy="-1.8" rx="1.8" ry="1.8"/>
</g>
<!-- 0000000000000031&#45;&gt;null14 -->
<g id="edge32" class="edge">
<title>0000000000000031-&gt;null14</title>
<path fill="none" stroke="#000000" d="M1163.103,-39.329C1161.4535,-30.9617 1159.5444,-21.2775 1158.0788,-13.8426"/>
<polygon fill="#000000" stroke="#000000" points="1161.4807,-13.003 1156.1126,-3.8688 1154.6129,-14.357 1161.4807,-13.003"/>
</g>
<!-- null15 -->
<g id="node37" class="node">
<title>null15</title>
<ellipse fill="#000000" stroke="#000000" cx="1177.7048" cy="-1.8" rx="1.8" ry="1.8"/>
</g>
<!-- 0000000000000031&#45;&gt;null15 -->
<g id="edge33" class="edge">
<title>0000000000000031-&gt;null15</title>
<path fill="none" stroke="#000000" d="M1170.3066,-39.329C1171.9561,-30.9617 1173.8651,-21.2775 1175.3308,-13.8426"/>
<polygon fill="#000000" stroke="#000000" points="1178.7967,-14.357 1177.2969,-3.8688 1171.9289,-13.003 1178.7967,-14.357"/>
</g>
<!-- 9fdf9bdfaa698def -->
<g id="node39" class="node">
<title>9fdf9bdfaa698def</title>
<ellipse fill="#43a2ca" stroke="#000000" cx="1367.7048" cy="-57.6" rx="86.3819" ry="18"/>
<text text-anchor="middle" x="1367.7048" y="-53.4" font-family="Arial" font-size="14.00" fill="#000000">9fdf9bdfaa698def</text>
</g>
<!-- 2cc85e501e67dae401&#45;&gt;9fdf9bdfaa698def -->
<g id="edge35" class="edge">
<title>2cc85e501e67dae401-&gt;9fdf9bdfaa698def</title>
<path fill="none" stroke="#000000" d="M1367.7048,-111.4314C1367.7048,-103.731 1367.7048,-94.5743 1367.7048,-86.0166"/>
<polygon fill="#000000" stroke="#000000" points="1371.2049,-86.0132 1367.7048,-76.0133 1364.2049,-86.0133 1371.2049,-86.0132"/>
</g>
<!-- 0000000000000032 -->
<g id="node42" class="node">
<title>0000000000000032</title>
<ellipse fill="#a8ddb5" stroke="#000000" cx="1568.7048" cy="-57.6" rx="96.8585" ry="18"/>
<text text-anchor="middle" x="1568.7048" y="-53.4" font-family="Arial" font-size="14.00" fill="#000000">0000000000000032</text>
</g>
<!-- 2cc85e501e67dae401&#45;&gt;0000000000000032 -->
<g id="edge38" class="edge">
<title>2cc85e501e67dae401-&gt;0000000000000032</title>
<path fill="none" stroke="#000000" d="M1413.3148,-113.2621C1443.3357,-102.5083 1482.7828,-88.378 1514.4193,-77.0456"/>
<polygon fill="#000000" stroke="#000000" points="1515.7337,-80.2926 1523.9677,-73.6252 1513.3731,-73.7026 1515.7337,-80.2926"/>
</g>
<!-- null16 -->
<g id="node40" class="node">
<title>null16</title>
<ellipse fill="#000000" stroke="#000000" cx="1356.7048" cy="-1.8" rx="1.8" ry="1.8"/>
</g>
<!-- 9fdf9bdfaa698def&#45;&gt;null16 -->
<g id="edge36" class="edge">
<title>9fdf9bdfaa698def-&gt;null16</title>
<path fill="none" stroke="#000000" d="M1364.103,-39.329C1362.4535,-30.9617 1360.5444,-21.2775 1359.0788,-13.8426"/>
<polygon fill="#000000" stroke="#000000" points="1362.4807,-13.003 1357.1126,-3.8688 1355.6129,-14.357 1362.4807,-13.003"/>
</g>
<!-- null17 -->
<g id="node41" class="node">
<title>null17</title>
<ellipse fill="#000000" stroke="#000000" cx="1378.7048" cy="-1.8" rx="1.8" ry="1.8"/>
</g>
<!-- 9fdf9bdfaa698def&#45;&gt;null17 -->
<g id="edge37" class="edge">
<title>9fdf9bdfaa698def-&gt;null17</title>
<path fill="none" stroke="#000000" d="M1371.3066,-39.329C1372.9561,-30.9617 1374.8651,-21.2775 1376.3308,-13.8426"/>
<polygon fill="#000000" stroke="#000000" points="1379.7967,-14.357 1378.2969,-3.8688 1372.9289,-13.003 1379.7967,-14.357"/>
</g>
<!-- null18 -->
<g id="node43" class="node">
<title>null18</title>
<ellipse fill="#000000" stroke="#000000" cx="1557.7048" cy="-1.8" rx="1.8" ry="1.8"/>
</g>
<!-- 0000000000000032&#45;&gt;null18 -->
<g id="edge39" class="edge">
<title>0000000000000032-&gt;null18</title>
<path fill="none" stroke="#000000" d="M1565.103,-39.329C1563.4535,-30.9617 1561.5444,-21.2775 1560.0788,-13.8426"/>
<polygon fill="#000000" stroke="#000000" points="1563.4807,-13.003 1558.1126,-3.8688 1556.6129,-14.357 1563.4807,-13.003"/>
</g>
<!-- null19 -->
<g id="node44" class="node">
<title>null19</title>
<ellipse fill="#000000" stroke="#000000" cx="1579.7048" cy="-1.8" rx="1.8" ry="1.8"/>
</g>
<!-- 0000000000000032&#45;&gt;null19 -->
<g id="edge40" class="edge">
<title>0000000000000032-&gt;null19</title>
<path fill="none" stroke="#000000" d="M1572.3066,-39.329C1573.9561,-30.9617 1575.8651,-21.2775 1577.3308,-13.8426"/>
<polygon fill="#000000" stroke="#000000" points="1580.7967,-14.357 1579.2969,-3.8688 1573.9289,-13.003 1580.7967,-14.357"/>
</g>
<!-- cad23bf86fffc4d8 -->
<g id="node47" class="node">
<title>cad23bf86fffc4d8</title>
<ellipse fill="#43a2ca" stroke="#000000" cx="1172.7048" cy="-273.6" rx="85.2223" ry="18"/>
<text text-anchor="middle" x="1172.7048" y="-269.4" font-family="Arial" font-size="14.00" fill="#000000">cad23bf86fffc4d8</text>
</g>
<!-- e809d9c2752a8b3e01&#45;&gt;cad23bf86fffc4d8 -->
<g id="edge43" class="edge">
<title>e809d9c2752a8b3e01-&gt;cad23bf86fffc4d8</title>
<path fill="none" stroke="#000000" d="M1173.4524,-327.4314C1173.3455,-319.731 1173.2183,-310.5743 1173.0995,-302.0166"/>
<polygon fill="#000000" stroke="#000000" points="1176.5992,-301.9637 1172.9605,-292.0133 1169.5998,-302.0609 1176.5992,-301.9637"/>
</g>
<!-- 0000000000000037 -->
<g id="node50" class="node">
<title>0000000000000037</title>
<ellipse fill="#a8ddb5" stroke="#000000" cx="1372.7048" cy="-273.6" rx="96.8585" ry="18"/>
<text text-anchor="middle" x="1372.7048" y="-269.4" font-family="Arial" font-size="14.00" fill="#000000">0000000000000037</text>
</g>
<!-- e809d9c2752a8b3e01&#45;&gt;0000000000000037 -->
<g id="edge46" class="edge">
<title>e809d9c2752a8b3e01-&gt;0000000000000037</title>
<path fill="none" stroke="#000000" d="M1218.861,-329.2621C1248.5832,-318.5083 1287.6378,-304.378 1318.9594,-293.0456"/>
<polygon fill="#000000" stroke="#000000" points="1320.2002,-296.3188 1328.4128,-289.6252 1317.8185,-289.7363 1320.2002,-296.3188"/>
</g>
<!-- null21 -->
<g id="node48" class="node">
<title>null21</title>
<ellipse fill="#000000" stroke="#000000" cx="1170.7048" cy="-201.6" rx="1.8" ry="1.8"/>
</g>
<!-- cad23bf86fffc4d8&#45;&gt;null21 -->
<g id="edge44" class="edge">
<title>cad23bf86fffc4d8-&gt;null21</title>
<path fill="none" stroke="#000000" d="M1172.2001,-255.4314C1171.8341,-242.2567 1171.3498,-224.8195 1171.0329,-213.4119"/>
<polygon fill="#000000" stroke="#000000" points="1174.5314,-213.3057 1170.755,-203.4068 1167.5341,-213.5001 1174.5314,-213.3057"/>
</g>
<!-- null22 -->
<g id="node49" class="node">
<title>null22</title>
<ellipse fill="#000000" stroke="#000000" cx="1192.7048" cy="-201.6" rx="1.8" ry="1.8"/>
</g>
<!-- cad23bf86fffc4d8&#45;&gt;null22 -->
<g id="edge45" class="edge">
<title>cad23bf86fffc4d8-&gt;null22</title>
<path fill="none" stroke="#000000" d="M1177.7516,-255.4314C1181.451,-242.1135 1186.3604,-224.4399 1189.5264,-213.042"/>
<polygon fill="#000000" stroke="#000000" points="1192.8987,-213.9787 1192.2029,-203.4068 1186.1541,-212.1052 1192.8987,-213.9787"/>
</g>
<!-- null23 -->
<g id="node51" class="node">
<title>null23</title>
<ellipse fill="#000000" stroke="#000000" cx="1361.7048" cy="-201.6" rx="1.8" ry="1.8"/>
</g>
<!-- 0000000000000037&#45;&gt;null23 -->
<g id="edge47" class="edge">
<title>0000000000000037-&gt;null23</title>
<path fill="none" stroke="#000000" d="M1369.929,-255.4314C1367.9162,-242.2567 1365.2522,-224.8195 1363.5094,-213.4119"/>
<polygon fill="#000000" stroke="#000000" points="1366.951,-212.7634 1361.9808,-203.4068 1360.0313,-213.8207 1366.951,-212.7634"/>
</g>
<!-- null24 -->
<g id="node52" class="node">
<title>null24</title>
<ellipse fill="#000000" stroke="#000000" cx="1383.7048" cy="-201.6" rx="1.8" ry="1.8"/>
</g>
<!-- 0000000000000037&#45;&gt;null24 -->
<g id="edge48" class="edge">
<title>0000000000000037-&gt;null24</title>
<path fill="none" stroke="#000000" d="M1375.4805,-255.4314C1377.4933,-242.2567 1380.1574,-224.8195 1381.9002,-213.4119"/>
<polygon fill="#000000" stroke="#000000" points="1385.3783,-213.8207 1383.4287,-203.4068 1378.4586,-212.7634 1385.3783,-213.8207"/>
</g>
</g>
</svg>